<?xml version="1.0" encoding="utf-8" standalone="no"?>
<!DOCTYPE svg PUBLIC "-//W3C//DTD SVG 1.1//EN"
  "http://www.w3.org/Graphics/SVG/1.1/DTD/svg11.dtd">
<!-- Created with matplotlib (https://matplotlib.org/) -->
<svg height="262.19625pt" version="1.1" viewBox="0 0 394.160937 262.19625" width="394.160937pt" xmlns="http://www.w3.org/2000/svg" xmlns:xlink="http://www.w3.org/1999/xlink">
 <defs>
  <style type="text/css">
*{stroke-linecap:butt;stroke-linejoin:round;}
  </style>
 </defs>
 <g id="figure_1">
  <g id="patch_1">
   <path d="M 0 262.19625 
L 394.160937 262.19625 
L 394.160937 0 
L 0 0 
z
" style="fill:none;"/>
  </g>
  <g id="axes_1">
   <g id="patch_2">
    <path d="M 52.160938 224.64 
L 386.960938 224.64 
L 386.960938 7.2 
L 52.160938 7.2 
z
" style="fill:#ffffff;"/>
   </g>
   <g id="matplotlib.axis_1">
    <g id="xtick_1">
     <g id="line2d_1">
      <defs>
       <path d="M 0 0 
L 0 3.5 
" id="m7997170755" style="stroke:#000000;stroke-width:0.8;"/>
      </defs>
      <g>
       <use style="stroke:#000000;stroke-width:0.8;" x="78.317188" xlink:href="#m7997170755" y="224.64"/>
      </g>
     </g>
     <g id="text_1">
      <!-- −5 -->
      <defs>
       <path d="M 10.59375 35.5 
L 73.1875 35.5 
L 73.1875 27.203125 
L 10.59375 27.203125 
z
" id="DejaVuSans-8722"/>
       <path d="M 10.796875 72.90625 
L 49.515625 72.90625 
L 49.515625 64.59375 
L 19.828125 64.59375 
L 19.828125 46.734375 
Q 21.96875 47.46875 24.109375 47.828125 
Q 26.265625 48.1875 28.421875 48.1875 
Q 40.625 48.1875 47.75 41.5 
Q 54.890625 34.8125 54.890625 23.390625 
Q 54.890625 11.625 47.5625 5.09375 
Q 40.234375 -1.421875 26.90625 -1.421875 
Q 22.3125 -1.421875 17.546875 -0.640625 
Q 12.796875 0.140625 7.71875 1.703125 
L 7.71875 11.625 
Q 12.109375 9.234375 16.796875 8.0625 
Q 21.484375 6.890625 26.703125 6.890625 
Q 35.15625 6.890625 40.078125 11.328125 
Q 45.015625 15.765625 45.015625 23.390625 
Q 45.015625 31 40.078125 35.4375 
Q 35.15625 39.890625 26.703125 39.890625 
Q 22.75 39.890625 18.8125 39.015625 
Q 14.890625 38.140625 10.796875 36.28125 
z
" id="DejaVuSans-53"/>
      </defs>
      <g transform="translate(70.946094 239.238437)scale(0.1 -0.1)">
       <use xlink:href="#DejaVuSans-8722"/>
       <use x="83.789062" xlink:href="#DejaVuSans-53"/>
      </g>
     </g>
    </g>
    <g id="xtick_2">
     <g id="line2d_2">
      <g>
       <use style="stroke:#000000;stroke-width:0.8;" x="130.629688" xlink:href="#m7997170755" y="224.64"/>
      </g>
     </g>
     <g id="text_2">
      <!-- −4 -->
      <defs>
       <path d="M 37.796875 64.3125 
L 12.890625 25.390625 
L 37.796875 25.390625 
z
M 35.203125 72.90625 
L 47.609375 72.90625 
L 47.609375 25.390625 
L 58.015625 25.390625 
L 58.015625 17.1875 
L 47.609375 17.1875 
L 47.609375 0 
L 37.796875 0 
L 37.796875 17.1875 
L 4.890625 17.1875 
L 4.890625 26.703125 
z
" id="DejaVuSans-52"/>
      </defs>
      <g transform="translate(123.258594 239.238437)scale(0.1 -0.1)">
       <use xlink:href="#DejaVuSans-8722"/>
       <use x="83.789062" xlink:href="#DejaVuSans-52"/>
      </g>
     </g>
    </g>
    <g id="xtick_3">
     <g id="line2d_3">
      <g>
       <use style="stroke:#000000;stroke-width:0.8;" x="182.942188" xlink:href="#m7997170755" y="224.64"/>
      </g>
     </g>
     <g id="text_3">
      <!-- −3 -->
      <defs>
       <path d="M 40.578125 39.3125 
Q 47.65625 37.796875 51.625 33 
Q 55.609375 28.21875 55.609375 21.1875 
Q 55.609375 10.40625 48.1875 4.484375 
Q 40.765625 -1.421875 27.09375 -1.421875 
Q 22.515625 -1.421875 17.65625 -0.515625 
Q 12.796875 0.390625 7.625 2.203125 
L 7.625 11.71875 
Q 11.71875 9.328125 16.59375 8.109375 
Q 21.484375 6.890625 26.8125 6.890625 
Q 36.078125 6.890625 40.9375 10.546875 
Q 45.796875 14.203125 45.796875 21.1875 
Q 45.796875 27.640625 41.28125 31.265625 
Q 36.765625 34.90625 28.71875 34.90625 
L 20.21875 34.90625 
L 20.21875 43.015625 
L 29.109375 43.015625 
Q 36.375 43.015625 40.234375 45.921875 
Q 44.09375 48.828125 44.09375 54.296875 
Q 44.09375 59.90625 40.109375 62.90625 
Q 36.140625 65.921875 28.71875 65.921875 
Q 24.65625 65.921875 20.015625 65.03125 
Q 15.375 64.15625 9.8125 62.3125 
L 9.8125 71.09375 
Q 15.4375 72.65625 20.34375 73.4375 
Q 25.25 74.21875 29.59375 74.21875 
Q 40.828125 74.21875 47.359375 69.109375 
Q 53.90625 64.015625 53.90625 55.328125 
Q 53.90625 49.265625 50.4375 45.09375 
Q 46.96875 40.921875 40.578125 39.3125 
z
" id="DejaVuSans-51"/>
      </defs>
      <g transform="translate(175.571094 239.238437)scale(0.1 -0.1)">
       <use xlink:href="#DejaVuSans-8722"/>
       <use x="83.789062" xlink:href="#DejaVuSans-51"/>
      </g>
     </g>
    </g>
    <g id="xtick_4">
     <g id="line2d_4">
      <g>
       <use style="stroke:#000000;stroke-width:0.8;" x="235.254688" xlink:href="#m7997170755" y="224.64"/>
      </g>
     </g>
     <g id="text_4">
      <!-- −2 -->
      <defs>
       <path d="M 19.1875 8.296875 
L 53.609375 8.296875 
L 53.609375 0 
L 7.328125 0 
L 7.328125 8.296875 
Q 12.9375 14.109375 22.625 23.890625 
Q 32.328125 33.6875 34.8125 36.53125 
Q 39.546875 41.84375 41.421875 45.53125 
Q 43.3125 49.21875 43.3125 52.78125 
Q 43.3125 58.59375 39.234375 62.25 
Q 35.15625 65.921875 28.609375 65.921875 
Q 23.96875 65.921875 18.8125 64.3125 
Q 13.671875 62.703125 7.8125 59.421875 
L 7.8125 69.390625 
Q 13.765625 71.78125 18.9375 73 
Q 24.125 74.21875 28.421875 74.21875 
Q 39.75 74.21875 46.484375 68.546875 
Q 53.21875 62.890625 53.21875 53.421875 
Q 53.21875 48.921875 51.53125 44.890625 
Q 49.859375 40.875 45.40625 35.40625 
Q 44.1875 33.984375 37.640625 27.21875 
Q 31.109375 20.453125 19.1875 8.296875 
z
" id="DejaVuSans-50"/>
      </defs>
      <g transform="translate(227.883594 239.238437)scale(0.1 -0.1)">
       <use xlink:href="#DejaVuSans-8722"/>
       <use x="83.789062" xlink:href="#DejaVuSans-50"/>
      </g>
     </g>
    </g>
    <g id="xtick_5">
     <g id="line2d_5">
      <g>
       <use style="stroke:#000000;stroke-width:0.8;" x="287.567188" xlink:href="#m7997170755" y="224.64"/>
      </g>
     </g>
     <g id="text_5">
      <!-- −1 -->
      <defs>
       <path d="M 12.40625 8.296875 
L 28.515625 8.296875 
L 28.515625 63.921875 
L 10.984375 60.40625 
L 10.984375 69.390625 
L 28.421875 72.90625 
L 38.28125 72.90625 
L 38.28125 8.296875 
L 54.390625 8.296875 
L 54.390625 0 
L 12.40625 0 
z
" id="DejaVuSans-49"/>
      </defs>
      <g transform="translate(280.196094 239.238437)scale(0.1 -0.1)">
       <use xlink:href="#DejaVuSans-8722"/>
       <use x="83.789062" xlink:href="#DejaVuSans-49"/>
      </g>
     </g>
    </g>
    <g id="xtick_6">
     <g id="line2d_6">
      <g>
       <use style="stroke:#000000;stroke-width:0.8;" x="339.879688" xlink:href="#m7997170755" y="224.64"/>
      </g>
     </g>
     <g id="text_6">
      <!-- 0 -->
      <defs>
       <path d="M 31.78125 66.40625 
Q 24.171875 66.40625 20.328125 58.90625 
Q 16.5 51.421875 16.5 36.375 
Q 16.5 21.390625 20.328125 13.890625 
Q 24.171875 6.390625 31.78125 6.390625 
Q 39.453125 6.390625 43.28125 13.890625 
Q 47.125 21.390625 47.125 36.375 
Q 47.125 51.421875 43.28125 58.90625 
Q 39.453125 66.40625 31.78125 66.40625 
z
M 31.78125 74.21875 
Q 44.046875 74.21875 50.515625 64.515625 
Q 56.984375 54.828125 56.984375 36.375 
Q 56.984375 17.96875 50.515625 8.265625 
Q 44.046875 -1.421875 31.78125 -1.421875 
Q 19.53125 -1.421875 13.0625 8.265625 
Q 6.59375 17.96875 6.59375 36.375 
Q 6.59375 54.828125 13.0625 64.515625 
Q 19.53125 74.21875 31.78125 74.21875 
z
" id="DejaVuSans-48"/>
      </defs>
      <g transform="translate(336.698438 239.238437)scale(0.1 -0.1)">
       <use xlink:href="#DejaVuSans-48"/>
      </g>
     </g>
    </g>
    <g id="text_7">
     <!-- x1 -->
     <defs>
      <path d="M 54.890625 54.6875 
L 35.109375 28.078125 
L 55.90625 0 
L 45.3125 0 
L 29.390625 21.484375 
L 13.484375 0 
L 2.875 0 
L 24.125 28.609375 
L 4.6875 54.6875 
L 15.28125 54.6875 
L 29.78125 35.203125 
L 44.28125 54.6875 
z
" id="DejaVuSans-120"/>
     </defs>
     <g transform="translate(213.420313 252.916562)scale(0.1 -0.1)">
      <use xlink:href="#DejaVuSans-120"/>
      <use x="59.179688" xlink:href="#DejaVuSans-49"/>
     </g>
    </g>
   </g>
   <g id="matplotlib.axis_2">
    <g id="ytick_1">
     <g id="line2d_7">
      <defs>
       <path d="M 0 0 
L -3.5 0 
" id="mc0193f04e4" style="stroke:#000000;stroke-width:0.8;"/>
      </defs>
      <g>
       <use style="stroke:#000000;stroke-width:0.8;" x="52.160938" xlink:href="#mc0193f04e4" y="224.64"/>
      </g>
     </g>
     <g id="text_8">
      <!-- −3.0 -->
      <defs>
       <path d="M 10.6875 12.40625 
L 21 12.40625 
L 21 0 
L 10.6875 0 
z
" id="DejaVuSans-46"/>
      </defs>
      <g transform="translate(20.878125 228.439219)scale(0.1 -0.1)">
       <use xlink:href="#DejaVuSans-8722"/>
       <use x="83.789062" xlink:href="#DejaVuSans-51"/>
       <use x="147.412109" xlink:href="#DejaVuSans-46"/>
       <use x="179.199219" xlink:href="#DejaVuSans-48"/>
      </g>
     </g>
    </g>
    <g id="ytick_2">
     <g id="line2d_8">
      <g>
       <use style="stroke:#000000;stroke-width:0.8;" x="52.160938" xlink:href="#mc0193f04e4" y="196.763077"/>
      </g>
     </g>
     <g id="text_9">
      <!-- −2.5 -->
      <g transform="translate(20.878125 200.562296)scale(0.1 -0.1)">
       <use xlink:href="#DejaVuSans-8722"/>
       <use x="83.789062" xlink:href="#DejaVuSans-50"/>
       <use x="147.412109" xlink:href="#DejaVuSans-46"/>
       <use x="179.199219" xlink:href="#DejaVuSans-53"/>
      </g>
     </g>
    </g>
    <g id="ytick_3">
     <g id="line2d_9">
      <g>
       <use style="stroke:#000000;stroke-width:0.8;" x="52.160938" xlink:href="#mc0193f04e4" y="168.886154"/>
      </g>
     </g>
     <g id="text_10">
      <!-- −2.0 -->
      <g transform="translate(20.878125 172.685373)scale(0.1 -0.1)">
       <use xlink:href="#DejaVuSans-8722"/>
       <use x="83.789062" xlink:href="#DejaVuSans-50"/>
       <use x="147.412109" xlink:href="#DejaVuSans-46"/>
       <use x="179.199219" xlink:href="#DejaVuSans-48"/>
      </g>
     </g>
    </g>
    <g id="ytick_4">
     <g id="line2d_10">
      <g>
       <use style="stroke:#000000;stroke-width:0.8;" x="52.160938" xlink:href="#mc0193f04e4" y="141.009231"/>
      </g>
     </g>
     <g id="text_11">
      <!-- −1.5 -->
      <g transform="translate(20.878125 144.80845)scale(0.1 -0.1)">
       <use xlink:href="#DejaVuSans-8722"/>
       <use x="83.789062" xlink:href="#DejaVuSans-49"/>
       <use x="147.412109" xlink:href="#DejaVuSans-46"/>
       <use x="179.199219" xlink:href="#DejaVuSans-53"/>
      </g>
     </g>
    </g>
    <g id="ytick_5">
     <g id="line2d_11">
      <g>
       <use style="stroke:#000000;stroke-width:0.8;" x="52.160938" xlink:href="#mc0193f04e4" y="113.132308"/>
      </g>
     </g>
     <g id="text_12">
      <!-- −1.0 -->
      <g transform="translate(20.878125 116.931526)scale(0.1 -0.1)">
       <use xlink:href="#DejaVuSans-8722"/>
       <use x="83.789062" xlink:href="#DejaVuSans-49"/>
       <use x="147.412109" xlink:href="#DejaVuSans-46"/>
       <use x="179.199219" xlink:href="#DejaVuSans-48"/>
      </g>
     </g>
    </g>
    <g id="ytick_6">
     <g id="line2d_12">
      <g>
       <use style="stroke:#000000;stroke-width:0.8;" x="52.160938" xlink:href="#mc0193f04e4" y="85.255385"/>
      </g>
     </g>
     <g id="text_13">
      <!-- −0.5 -->
      <g transform="translate(20.878125 89.054603)scale(0.1 -0.1)">
       <use xlink:href="#DejaVuSans-8722"/>
       <use x="83.789062" xlink:href="#DejaVuSans-48"/>
       <use x="147.412109" xlink:href="#DejaVuSans-46"/>
       <use x="179.199219" xlink:href="#DejaVuSans-53"/>
      </g>
     </g>
    </g>
    <g id="ytick_7">
     <g id="line2d_13">
      <g>
       <use style="stroke:#000000;stroke-width:0.8;" x="52.160938" xlink:href="#mc0193f04e4" y="57.378462"/>
      </g>
     </g>
     <g id="text_14">
      <!-- 0.0 -->
      <g transform="translate(29.257812 61.17768)scale(0.1 -0.1)">
       <use xlink:href="#DejaVuSans-48"/>
       <use x="63.623047" xlink:href="#DejaVuSans-46"/>
       <use x="95.410156" xlink:href="#DejaVuSans-48"/>
      </g>
     </g>
    </g>
    <g id="ytick_8">
     <g id="line2d_14">
      <g>
       <use style="stroke:#000000;stroke-width:0.8;" x="52.160938" xlink:href="#mc0193f04e4" y="29.501538"/>
      </g>
     </g>
     <g id="text_15">
      <!-- 0.5 -->
      <g transform="translate(29.257812 33.300757)scale(0.1 -0.1)">
       <use xlink:href="#DejaVuSans-48"/>
       <use x="63.623047" xlink:href="#DejaVuSans-46"/>
       <use x="95.410156" xlink:href="#DejaVuSans-53"/>
      </g>
     </g>
    </g>
    <g id="text_16">
     <!-- x2 -->
     <g transform="translate(14.798438 122.060625)rotate(-90)scale(0.1 -0.1)">
      <use xlink:href="#DejaVuSans-120"/>
      <use x="59.179688" xlink:href="#DejaVuSans-50"/>
     </g>
    </g>
   </g>
   <g id="LineCollection_1"/>
   <g id="LineCollection_2">
    <path clip-path="url(#p6ebdcfebf2)" d="M 386.960938 124.717957 
L 381.729688 124.90752 
L 376.498437 125.074782 
L 371.267187 125.219742 
L 366.035937 125.3424 
L 360.804688 125.442757 
L 355.573438 125.520812 
L 350.342187 125.576566 
L 345.110937 125.610018 
L 339.879687 125.621169 
L 334.648438 125.610018 
L 329.417188 125.576566 
L 324.185937 125.520812 
L 318.954687 125.442757 
L 313.723437 125.3424 
L 308.492188 125.219742 
L 303.260938 125.074782 
L 298.029687 124.90752 
L 292.798437 124.717957 
L 287.567187 124.506092 
L 282.585045 124.283077 
L 282.335938 124.270957 
L 277.104688 123.992187 
L 271.873438 123.689177 
L 266.642187 123.361926 
L 261.410937 123.010435 
L 256.179688 122.634702 
L 250.948437 122.234729 
L 245.717187 121.810515 
L 240.485937 121.36206 
L 235.254687 120.889365 
L 230.023438 120.392428 
L 224.792188 119.871251 
L 219.560937 119.325833 
L 214.329687 118.756174 
L 213.902647 118.707692 
L 209.098437 118.11033 
L 203.867188 117.433319 
L 198.635937 116.729758 
L 193.404687 115.999648 
L 188.173438 115.242989 
L 182.942187 114.45978 
L 177.710938 113.650022 
L 174.472545 113.132308 
L 172.479688 112.780178 
L 167.248437 111.826494 
L 162.017188 110.843466 
L 156.785937 109.831093 
L 151.554688 108.789377 
L 146.323437 107.718316 
L 145.556187 107.556923 
L 141.092187 106.507439 
L 135.860938 105.244778 
L 130.629687 103.949321 
L 125.398438 102.621068 
L 122.94038 101.981538 
L 120.167187 101.163815 
L 114.935937 99.584123 
L 109.704688 97.967262 
L 104.767328 96.406154 
L 104.473437 96.298935 
L 99.242188 94.34755 
L 94.010937 92.353278 
L 90.101266 90.830769 
L 88.779687 90.222545 
L 83.548437 87.764308 
L 78.317187 85.255385 
L 78.317187 85.255385 
L 73.085938 82.126974 
L 69.07362 79.68 
L 67.854688 78.72422 
L 62.623438 74.542681 
L 62.085645 74.104615 
L 57.392187 68.752246 
L 57.200215 68.529231 
L 54.320628 62.953846 
L 53.360765 57.378462 
L 54.320628 51.803077 
L 57.200215 46.227692 
L 57.392187 46.004677 
L 62.085645 40.652308 
L 62.623438 40.214242 
L 67.854688 36.032703 
L 69.07362 35.076923 
L 73.085938 32.629949 
L 78.317187 29.501538 
L 78.317188 29.501538 
L 83.548437 26.992615 
L 88.779687 24.534378 
L 90.101266 23.926154 
L 94.010937 22.403645 
L 99.242188 20.409373 
L 104.473437 18.457988 
L 104.767328 18.350769 
L 109.704688 16.789662 
L 114.935937 15.1728 
L 120.167187 13.593108 
L 122.94038 12.775385 
L 125.398438 12.135855 
L 130.629687 10.807602 
L 135.860938 9.512145 
L 141.092187 8.249484 
L 145.556188 7.2 
" style="fill:none;stroke:#1f77b4;stroke-width:1.5;"/>
   </g>
   <g id="LineCollection_3">
    <path clip-path="url(#p6ebdcfebf2)" d="M 386.960938 153.267112 
L 381.729688 153.402514 
L 376.498437 153.521987 
L 371.267187 153.62553 
L 366.035937 153.713143 
L 360.804688 153.784826 
L 355.573438 153.84058 
L 350.342187 153.880404 
L 345.110937 153.904299 
L 339.879687 153.912264 
L 334.648438 153.904299 
L 329.417188 153.880404 
L 324.185937 153.84058 
L 318.954687 153.784826 
L 313.723437 153.713143 
L 308.492188 153.62553 
L 303.260938 153.521987 
L 298.029687 153.402514 
L 292.798437 153.267112 
L 287.567187 153.11578 
L 282.335938 152.948519 
L 277.104688 152.765327 
L 271.873438 152.566207 
L 266.642187 152.351156 
L 262.312877 152.16 
L 261.410937 152.117762 
L 256.179688 151.855888 
L 250.948438 151.577119 
L 245.717188 151.281455 
L 240.485938 150.968895 
L 235.254687 150.639441 
L 230.023438 150.293091 
L 224.792188 149.929846 
L 219.560937 149.549706 
L 214.329687 149.152671 
L 209.098437 148.738741 
L 203.867188 148.307916 
L 198.635937 147.860196 
L 193.404687 147.39558 
L 188.173438 146.91407 
L 184.715493 146.584615 
L 182.942187 146.404764 
L 177.710938 145.856218 
L 172.479687 145.289687 
L 167.248437 144.705171 
L 162.017188 144.10267 
L 156.785937 143.482184 
L 151.554688 142.843712 
L 146.323437 142.187256 
L 141.092187 141.512814 
L 137.287642 141.009231 
L 135.860938 140.807363 
L 130.629687 140.047958 
L 125.398438 139.269326 
L 120.167187 138.471469 
L 114.935937 137.654387 
L 109.704688 136.81808 
L 104.473437 135.962546 
L 101.311693 135.433846 
L 99.242188 135.062154 
L 94.010937 134.101949 
L 88.779687 133.121094 
L 83.548437 132.11959 
L 78.317187 131.097436 
L 73.085938 130.054632 
L 72.12095 129.858462 
L 67.854688 128.921797 
L 62.623438 127.750966 
L 57.392187 126.557834 
L 52.160937 125.3424 
" style="fill:none;stroke:#1f77b4;stroke-width:1.5;"/>
   </g>
   <g id="LineCollection_4">
    <path clip-path="url(#p6ebdcfebf2)" d="M 386.960938 175.103356 
L 381.729688 175.213567 
L 376.498437 175.310812 
L 371.267187 175.395091 
L 366.035937 175.466404 
L 360.804688 175.524751 
L 355.573438 175.570132 
L 350.342187 175.602547 
L 345.110937 175.621996 
L 339.879687 175.628479 
L 334.648438 175.621996 
L 329.417188 175.602547 
L 324.185937 175.570132 
L 318.954687 175.524751 
L 313.723437 175.466404 
L 308.492188 175.395091 
L 303.260938 175.310812 
L 298.029687 175.213567 
L 292.798437 175.103356 
L 287.567187 174.980179 
L 282.335938 174.844036 
L 277.104688 174.694927 
L 271.873438 174.532852 
L 269.742187 174.461538 
L 266.642187 174.35275 
L 261.410937 174.155572 
L 256.179688 173.944795 
L 250.948438 173.72042 
L 245.717187 173.482447 
L 240.485937 173.230874 
L 235.254687 172.965704 
L 230.023438 172.686934 
L 224.792188 172.394567 
L 219.560937 172.0886 
L 214.329687 171.769036 
L 209.098437 171.435872 
L 203.867188 171.089111 
L 198.635937 170.72875 
L 193.404687 170.354792 
L 188.173438 169.967235 
L 182.942187 169.566079 
L 177.710938 169.151325 
L 174.472545 168.886154 
L 172.479687 168.714604 
L 167.248437 168.249988 
L 162.017188 167.771077 
L 156.785937 167.27787 
L 151.554688 166.770367 
L 146.323437 166.248568 
L 141.092187 165.712473 
L 135.860938 165.162083 
L 130.629687 164.597396 
L 125.398438 164.018414 
L 120.167187 163.425136 
L 119.182482 163.310769 
L 114.935937 162.790902 
L 109.704688 162.135418 
L 104.473437 161.464865 
L 99.242188 160.779243 
L 94.010937 160.078553 
L 88.779687 159.362794 
L 83.548437 158.631967 
L 78.317187 157.886071 
L 77.281296 157.735385 
L 73.085938 157.090233 
L 67.854688 156.269855 
L 62.623438 155.433547 
L 57.392187 154.58131 
L 52.160937 153.713143 
" style="fill:none;stroke:#1f77b4;stroke-width:1.5;"/>
   </g>
   <g id="LineCollection_5">
    <path clip-path="url(#p6ebdcfebf2)" d="M 386.960938 193.45767 
L 381.729688 193.554386 
L 376.498437 193.639724 
L 371.267187 193.713683 
L 366.035937 193.776264 
L 360.804688 193.827466 
L 355.573438 193.86729 
L 350.342187 193.895736 
L 345.110937 193.912804 
L 339.879687 193.918493 
L 334.648438 193.912804 
L 329.417188 193.895736 
L 324.185937 193.86729 
L 318.954687 193.827466 
L 313.723437 193.776264 
L 308.492188 193.713683 
L 303.260938 193.639724 
L 298.029687 193.554386 
L 292.798437 193.45767 
L 287.567187 193.349576 
L 282.335938 193.230104 
L 277.104688 193.099253 
L 271.873438 192.957024 
L 266.642187 192.803416 
L 261.410937 192.63843 
L 256.179688 192.462066 
L 250.948438 192.274323 
L 245.717187 192.075203 
L 240.485937 191.864703 
L 235.254687 191.642826 
L 230.023438 191.40957 
L 225.278815 191.187692 
L 224.792188 191.163967 
L 219.560937 190.897061 
L 214.329687 190.618291 
L 209.098437 190.32766 
L 203.867188 190.025165 
L 198.635937 189.710809 
L 193.404687 189.384589 
L 188.173438 189.046507 
L 182.942187 188.696563 
L 177.710938 188.334756 
L 172.479687 187.961087 
L 167.248437 187.575555 
L 162.017188 187.17816 
L 156.785937 186.768903 
L 151.554688 186.347784 
L 146.323437 185.914802 
L 142.766187 185.612308 
L 141.092187 185.463631 
L 135.860937 184.986626 
L 130.629687 184.497231 
L 125.398438 183.995446 
L 120.167187 183.481272 
L 114.935937 182.954708 
L 109.704688 182.415754 
L 104.473437 181.86441 
L 99.242188 181.300677 
L 94.010937 180.724554 
L 88.779687 180.136041 
L 87.916801 180.036923 
L 83.548437 179.5118 
L 78.317187 178.869982 
L 73.085938 178.215199 
L 67.854688 177.547449 
L 62.623438 176.866733 
L 57.392187 176.173052 
L 52.160937 175.466404 
" style="fill:none;stroke:#1f77b4;stroke-width:1.5;"/>
   </g>
   <g id="LineCollection_6">
    <path clip-path="url(#p6ebdcfebf2)" d="M 386.960938 209.632078 
L 381.729688 209.718243 
L 376.498437 209.794271 
L 371.267187 209.860162 
L 366.035937 209.915916 
L 360.804688 209.961533 
L 355.573438 209.997013 
L 350.342187 210.022355 
L 345.110937 210.037561 
L 339.879687 210.042629 
L 334.648438 210.037561 
L 329.417188 210.022355 
L 324.185937 209.997013 
L 318.954687 209.961533 
L 313.723437 209.915916 
L 308.492188 209.860162 
L 303.260938 209.794271 
L 298.029687 209.718243 
L 292.798437 209.632078 
L 287.567187 209.535776 
L 282.335938 209.429337 
L 277.104688 209.312761 
L 271.873438 209.186048 
L 266.642187 209.049197 
L 261.410937 208.90221 
L 256.179688 208.745085 
L 250.948438 208.577824 
L 245.717187 208.400425 
L 240.485937 208.21289 
L 235.254687 208.015217 
L 232.702858 207.913846 
L 230.023438 207.80339 
L 224.792188 207.577219 
L 219.560937 207.340528 
L 214.329687 207.093318 
L 209.098437 206.835588 
L 203.867188 206.567338 
L 198.635937 206.288569 
L 193.404687 205.99928 
L 188.173438 205.699472 
L 182.942187 205.389144 
L 177.710938 205.068296 
L 172.479687 204.736929 
L 167.248437 204.395042 
L 162.017188 204.042636 
L 156.785937 203.67971 
L 151.554688 203.306264 
L 146.323437 202.922299 
L 141.092187 202.527814 
L 138.646408 202.338462 
L 135.860938 202.114353 
L 130.629687 201.682534 
L 125.398438 201.239783 
L 120.167187 200.7861 
L 114.935937 200.321484 
L 109.704688 199.845937 
L 104.473437 199.359457 
L 99.242188 198.862045 
L 94.010937 198.353701 
L 88.779687 197.834425 
L 83.548437 197.304217 
L 78.317187 196.763077 
L 78.317187 196.763077 
L 73.085938 196.188471 
L 67.854688 195.602487 
L 62.623438 195.005124 
L 57.392187 194.396383 
L 52.160937 193.776264 
" style="fill:none;stroke:#1f77b4;stroke-width:1.5;"/>
   </g>
   <g id="LineCollection_7">
    <path clip-path="url(#p6ebdcfebf2)" d="M 339.879687 224.64 
L 334.648438 224.635275 
L 329.417188 224.6211 
L 324.185937 224.597476 
L 318.954687 224.564402 
L 313.723437 224.521877 
L 308.492188 224.469904 
L 303.260938 224.40848 
L 298.029687 224.337606 
L 292.798437 224.257283 
L 287.567187 224.16751 
L 282.335938 224.068287 
L 277.104688 223.959614 
L 271.873438 223.841492 
L 266.642187 223.713919 
L 261.410937 223.576897 
L 256.179688 223.430425 
L 250.948438 223.274503 
L 245.717187 223.109132 
L 240.485937 222.93431 
L 235.254687 222.750039 
L 230.023438 222.556318 
L 224.792188 222.353147 
L 219.560937 222.140527 
L 214.329687 221.918456 
L 209.098437 221.686936 
L 203.867188 221.445966 
L 198.635937 221.195546 
L 193.404687 220.935677 
L 188.173438 220.666357 
L 182.942187 220.387588 
L 177.710938 220.099369 
L 172.479687 219.8017 
L 167.248437 219.494581 
L 162.017188 219.178013 
L 160.197622 219.064615 
L 156.785937 218.844534 
L 151.554688 218.497296 
L 146.323437 218.140275 
L 141.092187 217.773474 
L 135.860938 217.396891 
L 130.629687 217.010526 
L 125.398438 216.614381 
L 120.167187 216.208453 
L 114.935937 215.792745 
L 109.704688 215.367255 
L 104.473437 214.931984 
L 99.242188 214.486931 
L 94.010937 214.032097 
L 88.779687 213.567482 
L 87.916801 213.489231 
L 83.548437 213.07868 
L 78.317187 212.576895 
L 73.085938 212.064973 
L 67.854688 211.542915 
L 62.623438 211.010719 
L 57.392187 210.468386 
L 52.160937 209.915916 
" style="fill:none;stroke:#1f77b4;stroke-width:1.5;"/>
    <path clip-path="url(#p6ebdcfebf2)" d="M 386.960938 224.257283 
L 381.729688 224.337606 
L 376.498437 224.40848 
L 371.267187 224.469904 
L 366.035937 224.521877 
L 360.804688 224.564402 
L 355.573438 224.597476 
L 350.342187 224.6211 
L 345.110937 224.635275 
L 339.879687 224.64 
" style="fill:none;stroke:#1f77b4;stroke-width:1.5;"/>
   </g>
   <g id="LineCollection_8">
    <path clip-path="url(#p6ebdcfebf2)" d="M 53.360765 224.64 
L 52.160937 224.521877 
" style="fill:none;stroke:#1f77b4;stroke-width:1.5;"/>
   </g>
   <g id="LineCollection_9"/>
   <g id="line2d_15">
    <path clip-path="url(#p6ebdcfebf2)" d="M 78.317188 168.886154 
L 99.242177 146.584616 
L 113.409581 132.652955 
L 124.654142 122.253454 
L 134.171163 113.937166 
L 142.513245 107.042156 
L 149.988832 101.1992 
L 156.790677 96.176142 
L 163.048719 91.814739 
L 168.855474 88.000652 
L 174.279586 84.647559 
L 179.373659 81.688035 
L 184.179073 79.06798 
L 188.72908 76.743049 
L 193.050885 74.676263 
L 197.16709 72.83636 
L 201.096719 71.19661 
L 204.85597 69.733959 
L 208.458773 68.428372 
L 211.917217 67.262342 
L 215.241872 66.220495 
" style="fill:none;stroke:#ff7f0e;stroke-linecap:square;stroke-width:1.5;"/>
    <defs>
     <path d="M 0 3 
C 0.795609 3 1.55874 2.683901 2.12132 2.12132 
C 2.683901 1.55874 3 0.795609 3 0 
C 3 -0.795609 2.683901 -1.55874 2.12132 -2.12132 
C 1.55874 -2.683901 0.795609 -3 0 -3 
C -0.795609 -3 -1.55874 -2.683901 -2.12132 -2.12132 
C -2.683901 -1.55874 -3 -0.795609 -3 0 
C -3 0.795609 -2.683901 1.55874 -2.12132 2.12132 
C -1.55874 2.683901 -0.795609 3 0 3 
z
" id="m37be429a85" style="stroke:#ff7f0e;"/>
    </defs>
    <g clip-path="url(#p6ebdcfebf2)">
     <use style="fill:#ff7f0e;stroke:#ff7f0e;" x="78.317188" xlink:href="#m37be429a85" y="168.886154"/>
     <use style="fill:#ff7f0e;stroke:#ff7f0e;" x="99.242177" xlink:href="#m37be429a85" y="146.584616"/>
     <use style="fill:#ff7f0e;stroke:#ff7f0e;" x="113.409581" xlink:href="#m37be429a85" y="132.652955"/>
     <use style="fill:#ff7f0e;stroke:#ff7f0e;" x="124.654142" xlink:href="#m37be429a85" y="122.253454"/>
     <use style="fill:#ff7f0e;stroke:#ff7f0e;" x="134.171163" xlink:href="#m37be429a85" y="113.937166"/>
     <use style="fill:#ff7f0e;stroke:#ff7f0e;" x="142.513245" xlink:href="#m37be429a85" y="107.042156"/>
     <use style="fill:#ff7f0e;stroke:#ff7f0e;" x="149.988832" xlink:href="#m37be429a85" y="101.1992"/>
     <use style="fill:#ff7f0e;stroke:#ff7f0e;" x="156.790677" xlink:href="#m37be429a85" y="96.176142"/>
     <use style="fill:#ff7f0e;stroke:#ff7f0e;" x="163.048719" xlink:href="#m37be429a85" y="91.814739"/>
     <use style="fill:#ff7f0e;stroke:#ff7f0e;" x="168.855474" xlink:href="#m37be429a85" y="88.000652"/>
     <use style="fill:#ff7f0e;stroke:#ff7f0e;" x="174.279586" xlink:href="#m37be429a85" y="84.647559"/>
     <use style="fill:#ff7f0e;stroke:#ff7f0e;" x="179.373659" xlink:href="#m37be429a85" y="81.688035"/>
     <use style="fill:#ff7f0e;stroke:#ff7f0e;" x="184.179073" xlink:href="#m37be429a85" y="79.06798"/>
     <use style="fill:#ff7f0e;stroke:#ff7f0e;" x="188.72908" xlink:href="#m37be429a85" y="76.743049"/>
     <use style="fill:#ff7f0e;stroke:#ff7f0e;" x="193.050885" xlink:href="#m37be429a85" y="74.676263"/>
     <use style="fill:#ff7f0e;stroke:#ff7f0e;" x="197.16709" xlink:href="#m37be429a85" y="72.83636"/>
     <use style="fill:#ff7f0e;stroke:#ff7f0e;" x="201.096719" xlink:href="#m37be429a85" y="71.19661"/>
     <use style="fill:#ff7f0e;stroke:#ff7f0e;" x="204.85597" xlink:href="#m37be429a85" y="69.733959"/>
     <use style="fill:#ff7f0e;stroke:#ff7f0e;" x="208.458773" xlink:href="#m37be429a85" y="68.428372"/>
     <use style="fill:#ff7f0e;stroke:#ff7f0e;" x="211.917217" xlink:href="#m37be429a85" y="67.262342"/>
     <use style="fill:#ff7f0e;stroke:#ff7f0e;" x="215.241872" xlink:href="#m37be429a85" y="66.220495"/>
    </g>
   </g>
   <g id="patch_3">
    <path d="M 52.160938 224.64 
L 52.160938 7.2 
" style="fill:none;stroke:#000000;stroke-linecap:square;stroke-linejoin:miter;stroke-width:0.8;"/>
   </g>
   <g id="patch_4">
    <path d="M 386.960938 224.64 
L 386.960938 7.2 
" style="fill:none;stroke:#000000;stroke-linecap:square;stroke-linejoin:miter;stroke-width:0.8;"/>
   </g>
   <g id="patch_5">
    <path d="M 52.160937 224.64 
L 386.960938 224.64 
" style="fill:none;stroke:#000000;stroke-linecap:square;stroke-linejoin:miter;stroke-width:0.8;"/>
   </g>
   <g id="patch_6">
    <path d="M 52.160937 7.2 
L 386.960938 7.2 
" style="fill:none;stroke:#000000;stroke-linecap:square;stroke-linejoin:miter;stroke-width:0.8;"/>
   </g>
  </g>
 </g>
 <defs>
  <clipPath id="p6ebdcfebf2">
   <rect height="217.44" width="334.8" x="52.160938" y="7.2"/>
  </clipPath>
 </defs>
</svg>
